REM MD5 3770ab684f8f284a58cabab3a980e548
FILE "True Pinball (USA).bin" BINARY
  TRACK 01 MODE2/2352
    INDEX 01 00:00:00
  TRACK 02 AUDIO
    INDEX 00 03:12:21
    INDEX 01 03:14:21
  TRACK 03 AUDIO
    INDEX 00 06:19:38
    INDEX 01 06:21:38
  TRACK 04 AUDIO
    INDEX 00 09:42:47
    INDEX 01 09:44:47
  TRACK 05 AUDIO
    INDEX 00 13:23:72
    INDEX 01 13:25:72
  TRACK 06 AUDIO
    INDEX 00 15:18:57
    INDEX 01 15:20:57
  TRACK 07 AUDIO
    INDEX 00 18:21:74
    INDEX 01 18:23:74
  TRACK 08 AUDIO
    INDEX 00 19:00:72
    INDEX 01 19:02:72
  TRACK 09 AUDIO
    INDEX 00 19:46:48
    INDEX 01 19:48:48
  TRACK 10 AUDIO
    INDEX 00 20:27:38
    INDEX 01 20:29:38
  TRACK 11 AUDIO
    INDEX 00 21:20:14
    INDEX 01 21:22:14
  TRACK 12 AUDIO
    INDEX 00 22:01:04
    INDEX 01 22:03:04
  TRACK 13 AUDIO
    INDEX 00 22:33:09
    INDEX 01 22:35:09
  TRACK 14 AUDIO
    INDEX 00 23:10:23
    INDEX 01 23:12:23
  TRACK 15 AUDIO
    INDEX 00 23:57:06
    INDEX 01 23:59:06
  TRACK 16 AUDIO
    INDEX 00 24:47:12
    INDEX 01 24:49:12
  TRACK 17 AUDIO
    INDEX 00 25:29:30
    INDEX 01 25:31:30
  TRACK 18 AUDIO
    INDEX 00 26:08:13
    INDEX 01 26:10:13
  TRACK 19 AUDIO
    INDEX 00 26:56:23
    INDEX 01 26:58:23
  TRACK 20 AUDIO
    INDEX 00 27:44:09
    INDEX 01 27:46:09
  TRACK 21 AUDIO
    INDEX 00 28:24:44
    INDEX 01 28:26:44
  TRACK 22 AUDIO
    INDEX 00 29:24:07
    INDEX 01 29:26:07
  TRACK 23 AUDIO
    INDEX 00 30:09:32
    INDEX 01 30:11:32
  TRACK 24 AUDIO
    INDEX 00 30:52:60
    INDEX 01 30:54:60
  TRACK 25 AUDIO
    INDEX 00 31:46:22
    INDEX 01 31:48:22
  TRACK 26 AUDIO
    INDEX 00 32:27:35
    INDEX 01 32:29:35
  TRACK 27 AUDIO
    INDEX 00 33:17:64
    INDEX 01 33:19:64
  TRACK 28 AUDIO
    INDEX 00 33:55:28
    INDEX 01 33:57:28
  TRACK 29 AUDIO
    INDEX 00 34:43:44
    INDEX 01 34:45:44
  TRACK 30 AUDIO
    INDEX 00 35:27:36
    INDEX 01 35:29:36
  TRACK 31 AUDIO
    INDEX 00 36:14:34
    INDEX 01 36:16:34
  TRACK 32 AUDIO
    INDEX 00 37:50:18
    INDEX 01 37:52:18
  TRACK 33 AUDIO
    INDEX 00 39:07:16
    INDEX 01 39:09:16
  TRACK 34 AUDIO
    INDEX 00 40:16:29
    INDEX 01 40:18:29
  TRACK 35 AUDIO
    INDEX 00 41:19:42
    INDEX 01 41:21:42
  TRACK 36 AUDIO
    INDEX 00 42:37:14
    INDEX 01 42:39:14
  TRACK 37 AUDIO
    INDEX 00 43:30:62
    INDEX 01 43:32:62
  TRACK 38 AUDIO
    INDEX 00 44:19:02
    INDEX 01 44:21:02
  TRACK 39 AUDIO
    INDEX 00 45:05:25
    INDEX 01 45:07:25
  TRACK 40 AUDIO
    INDEX 00 46:03:55
    INDEX 01 46:05:55
  TRACK 41 AUDIO
    INDEX 00 47:01:53
    INDEX 01 47:03:53
  TRACK 42 AUDIO
    INDEX 00 48:22:31
    INDEX 01 48:24:31
  TRACK 43 AUDIO
    INDEX 00 49:10:60
    INDEX 01 49:12:60
  TRACK 44 AUDIO
    INDEX 00 50:02:21
    INDEX 01 50:04:21
  TRACK 45 AUDIO
    INDEX 00 50:36:59
    INDEX 01 50:38:59
  TRACK 46 AUDIO
    INDEX 00 51:51:29
    INDEX 01 51:53:29
  TRACK 47 AUDIO
    INDEX 00 52:33:45
    INDEX 01 52:35:45
  TRACK 48 AUDIO
    INDEX 00 53:12:63
    INDEX 01 53:14:63
  TRACK 49 AUDIO
    INDEX 00 53:54:11
    INDEX 01 53:56:11
  TRACK 50 AUDIO
    INDEX 00 54:42:16
    INDEX 01 54:44:16
REM LEADOUT 58:26:46
